<svg xmlns="http://www.w3.org/2000/svg" xmlns:xlink="http://www.w3.org/1999/xlink" width="32" height="32" viewBox="0 0 32 32">
  <defs>
    <clipPath id="clip-path">
      <rect id="長方形_486" data-name="長方形 486" width="32" height="32" transform="translate(0 -2)" fill="none" stroke="#fff" stroke-width="1"/>
    </clipPath>
  </defs>
  <g id="icon_map_btn_list" transform="translate(0 2)" clip-path="url(#clip-path)">
    <path id="線_3" data-name="線 3" d="M20,1H0A1,1,0,0,1-1,0,1,1,0,0,1,0-1H20a1,1,0,0,1,1,1A1,1,0,0,1,20,1Z" transform="translate(10 7)" fill="#fff"/>
    <path id="線_4" data-name="線 4" d="M20,1H0A1,1,0,0,1-1,0,1,1,0,0,1,0-1H20a1,1,0,0,1,1,1A1,1,0,0,1,20,1Z" transform="translate(10 14)" fill="#fff"/>
    <path id="線_5" data-name="線 5" d="M20,1H0A1,1,0,0,1-1,0,1,1,0,0,1,0-1H20a1,1,0,0,1,1,1A1,1,0,0,1,20,1Z" transform="translate(10 21)" fill="#fff"/>
    <path id="パス_1193" data-name="パス 1193" d="M2,1H0A1,1,0,0,1-1,0,1,1,0,0,1,0-1H2A1,1,0,0,1,3,0,1,1,0,0,1,2,1Z" transform="translate(2 7)" fill="#fff"/>
    <path id="線_7" data-name="線 7" d="M2,1H0A1,1,0,0,1-1,0,1,1,0,0,1,0-1H2A1,1,0,0,1,3,0,1,1,0,0,1,2,1Z" transform="translate(2 14)" fill="#fff"/>
    <path id="線_8" data-name="線 8" d="M2,1H0A1,1,0,0,1-1,0,1,1,0,0,1,0-1H2A1,1,0,0,1,3,0,1,1,0,0,1,2,1Z" transform="translate(2 21)" fill="#fff"/>
  </g>
</svg>
