<svg xmlns="http://www.w3.org/2000/svg" width="78.002" height="88" viewBox="0 0 78.002 88">
  <g id="合体_4" data-name="合体 4" transform="translate(19379 3669.998)" fill="#fff" stroke-linejoin="round">
    <path d="M -19340.001953125 -3582.203369140625 L -19341.267578125 -3584.193115234375 L -19347.6875 -3594.28955078125 C -19351.72265625 -3595.1298828125 -19355.56640625 -3596.624267578125 -19359.123046875 -3598.73583984375 C -19362.787109375 -3600.912353515625 -19366.03515625 -3603.67724609375 -19368.775390625 -3606.953125 C -19371.537109375 -3610.254638671875 -19373.693359375 -3613.966552734375 -19375.1796875 -3617.98583984375 C -19376.71875 -3622.14599609375 -19377.5 -3626.5244140625 -19377.5 -3630.99951171875 C -19377.5 -3636.0615234375 -19376.5078125 -3640.972900390625 -19374.552734375 -3645.59716796875 C -19372.6640625 -3650.0625 -19369.958984375 -3654.07275390625 -19366.515625 -3657.515869140625 C -19363.072265625 -3660.958984375 -19359.0625 -3663.66259765625 -19354.59765625 -3665.551025390625 C -19349.974609375 -3667.5068359375 -19345.0625 -3668.498291015625 -19340.001953125 -3668.498291015625 C -19334.939453125 -3668.498291015625 -19330.029296875 -3667.5068359375 -19325.404296875 -3665.55126953125 C -19320.9375 -3663.66259765625 -19316.927734375 -3660.959228515625 -19313.484375 -3657.51611328125 C -19310.0390625 -3654.07275390625 -19307.3359375 -3650.062744140625 -19305.4453125 -3645.59716796875 C -19303.490234375 -3640.972900390625 -19302.498046875 -3636.0615234375 -19302.498046875 -3630.99951171875 C -19302.498046875 -3626.524658203125 -19303.279296875 -3622.146484375 -19304.818359375 -3617.986572265625 C -19306.306640625 -3613.967529296875 -19308.4609375 -3610.255859375 -19311.22265625 -3606.954345703125 C -19313.962890625 -3603.6787109375 -19317.2109375 -3600.9140625 -19320.875 -3598.7373046875 C -19324.431640625 -3596.62548828125 -19328.275390625 -3595.130859375 -19332.310546875 -3594.290283203125 L -19338.736328125 -3584.192626953125 L -19340.001953125 -3582.203369140625 Z" stroke="none"/>
    <path d="M -19340.001953125 -3584.998046875 L -19333.232421875 -3595.635986328125 C -19316.5859375 -3598.802978515625 -19303.998046875 -3613.43017578125 -19303.998046875 -3630.99951171875 C -19303.998046875 -3650.883056640625 -19320.119140625 -3666.998291015625 -19340.001953125 -3666.998291015625 C -19359.880859375 -3666.998291015625 -19376 -3650.883056640625 -19376 -3630.99951171875 C -19376 -3613.428955078125 -19363.412109375 -3598.80078125 -19346.765625 -3595.63525390625 L -19340.001953125 -3584.998046875 M -19340.001953125 -3581.998046875 C -19340.001953125 -3581.998046875 -19340.001953125 -3581.998046875 -19340.001953125 -3581.998046875 C -19341.029296875 -3581.998291015625 -19341.982421875 -3582.522705078125 -19342.533203125 -3583.388427734375 L -19348.6171875 -3592.956298828125 C -19352.587890625 -3593.85107421875 -19356.373046875 -3595.358642578125 -19359.888671875 -3597.446044921875 C -19363.69921875 -3599.70947265625 -19367.076171875 -3602.584228515625 -19369.92578125 -3605.990478515625 C -19372.798828125 -3609.424072265625 -19375.0390625 -3613.28466796875 -19376.5859375 -3617.46533203125 C -19378.1875 -3621.79248046875 -19379 -3626.34619140625 -19379 -3630.99951171875 C -19379 -3636.263427734375 -19377.96875 -3641.371337890625 -19375.93359375 -3646.181396484375 C -19373.96875 -3650.82568359375 -19371.158203125 -3654.99609375 -19367.576171875 -3658.57666015625 C -19363.99609375 -3662.156982421875 -19359.826171875 -3664.96826171875 -19355.181640625 -3666.9326171875 C -19350.37109375 -3668.966796875 -19345.265625 -3669.998291015625 -19340.001953125 -3669.998291015625 C -19334.73828125 -3669.998291015625 -19329.630859375 -3668.966796875 -19324.8203125 -3666.9326171875 C -19320.17578125 -3664.968505859375 -19316.00390625 -3662.1572265625 -19312.421875 -3658.57666015625 C -19308.841796875 -3654.996337890625 -19306.029296875 -3650.825927734375 -19304.064453125 -3646.181640625 C -19302.029296875 -3641.371337890625 -19300.998046875 -3636.263427734375 -19300.998046875 -3630.99951171875 C -19300.998046875 -3626.346435546875 -19301.810546875 -3621.793212890625 -19303.412109375 -3617.466064453125 C -19304.958984375 -3613.28564453125 -19307.19921875 -3609.42529296875 -19310.072265625 -3605.991943359375 C -19312.921875 -3602.5859375 -19316.298828125 -3599.711181640625 -19320.109375 -3597.447509765625 C -19323.625 -3595.35986328125 -19327.41015625 -3593.852294921875 -19331.380859375 -3592.95703125 L -19337.470703125 -3583.387451171875 C -19338.021484375 -3582.52197265625 -19338.9765625 -3581.998046875 -19340.001953125 -3581.998046875 Z" stroke="none" fill="#ef8202"/>
  </g>
</svg>
